<mxfile host="app.diagrams.net" modified="2024-03-05T21:14:41.674Z" agent="Mozilla/5.0 (Windows NT 10.0; Win64; x64; rv:123.0) Gecko/20100101 Firefox/123.0" version="23.1.8" etag="NWc7vGbMJnVZSuLbdoYc" type="github">
  <diagram name="Page-1" id="LM8YRiFyQVrt7zMVNmEU">
    <mxGraphModel>
      <root>
        <mxCell id="0" />
        <mxCell id="1" parent="0" />
      </root>
    </mxGraphModel>
  </diagram>
</mxfile>
